<mxfile host="app.diagrams.net" modified="2023-08-17T01:13:53.367Z" agent="Mozilla/5.0 (X11; Ubuntu; Linux x86_64; rv:109.0) Gecko/20100101 Firefox/111.0" etag="6rFxfrMcnXzoOp_OhCO8" version="21.6.8" type="github">
  <diagram name="Page-1" id="5f0bae14-7c28-e335-631c-24af17079c00">
    <mxGraphModel dx="1434" dy="795" grid="1" gridSize="10" guides="1" tooltips="1" connect="1" arrows="1" fold="1" page="1" pageScale="1" pageWidth="1100" pageHeight="850" background="none" math="0" shadow="0">
      <root>
        <mxCell id="0" />
        <mxCell id="1" parent="0" />
        <mxCell id="K4bVLLCjm3qLc4t_S5Vv-21" style="edgeStyle=orthogonalEdgeStyle;rounded=0;orthogonalLoop=1;jettySize=auto;html=1;entryX=0.5;entryY=0;entryDx=0;entryDy=0;" edge="1" parent="1" source="K4bVLLCjm3qLc4t_S5Vv-3" target="K4bVLLCjm3qLc4t_S5Vv-4">
          <mxGeometry relative="1" as="geometry" />
        </mxCell>
        <mxCell id="K4bVLLCjm3qLc4t_S5Vv-22" value="&lt;div&gt;Query Monthy &lt;br&gt;&lt;/div&gt;&lt;div&gt;Uptime Metrics&lt;/div&gt;" style="edgeLabel;html=1;align=center;verticalAlign=middle;resizable=0;points=[];" vertex="1" connectable="0" parent="K4bVLLCjm3qLc4t_S5Vv-21">
          <mxGeometry x="-0.0766" y="1" relative="1" as="geometry">
            <mxPoint y="1" as="offset" />
          </mxGeometry>
        </mxCell>
        <mxCell id="K4bVLLCjm3qLc4t_S5Vv-3" value="&lt;div&gt;Prometheus/&lt;/div&gt;&lt;div&gt;EIP Core Uptime&lt;br&gt;&lt;/div&gt;" style="shape=parallelogram;perimeter=parallelogramPerimeter;whiteSpace=wrap;html=1;fixedSize=1;size=30;" vertex="1" parent="1">
          <mxGeometry x="165" y="107.5" width="240" height="100" as="geometry" />
        </mxCell>
        <mxCell id="K4bVLLCjm3qLc4t_S5Vv-15" style="edgeStyle=orthogonalEdgeStyle;rounded=0;orthogonalLoop=1;jettySize=auto;html=1;entryX=0;entryY=0.5;entryDx=0;entryDy=0;" edge="1" parent="1" source="K4bVLLCjm3qLc4t_S5Vv-4" target="K4bVLLCjm3qLc4t_S5Vv-13">
          <mxGeometry relative="1" as="geometry" />
        </mxCell>
        <mxCell id="K4bVLLCjm3qLc4t_S5Vv-23" value="&lt;div&gt;Scrape JSON &lt;br&gt;&lt;/div&gt;&lt;div&gt;Metric Endpoint&lt;br&gt;&lt;/div&gt;" style="edgeLabel;html=1;align=center;verticalAlign=middle;resizable=0;points=[];" vertex="1" connectable="0" parent="K4bVLLCjm3qLc4t_S5Vv-15">
          <mxGeometry x="0.1586" y="-5" relative="1" as="geometry">
            <mxPoint x="-24" y="-5" as="offset" />
          </mxGeometry>
        </mxCell>
        <mxCell id="K4bVLLCjm3qLc4t_S5Vv-4" value="&lt;div&gt;Monthly-Uptime-Summary&lt;/div&gt;&lt;div&gt;Service&lt;br&gt;&lt;/div&gt;" style="rhombus;whiteSpace=wrap;html=1;" vertex="1" parent="1">
          <mxGeometry x="160" y="442.5" width="250" height="95" as="geometry" />
        </mxCell>
        <mxCell id="K4bVLLCjm3qLc4t_S5Vv-18" style="edgeStyle=orthogonalEdgeStyle;rounded=0;orthogonalLoop=1;jettySize=auto;html=1;" edge="1" parent="1" source="K4bVLLCjm3qLc4t_S5Vv-13" target="K4bVLLCjm3qLc4t_S5Vv-14">
          <mxGeometry relative="1" as="geometry">
            <mxPoint x="660" y="270" as="targetPoint" />
          </mxGeometry>
        </mxCell>
        <mxCell id="K4bVLLCjm3qLc4t_S5Vv-24" value="&lt;div&gt;Scrape Prometheus&lt;/div&gt;&lt;div&gt;Metrics Endpoint&lt;br&gt;&lt;/div&gt;" style="edgeLabel;html=1;align=center;verticalAlign=middle;resizable=0;points=[];" vertex="1" connectable="0" parent="K4bVLLCjm3qLc4t_S5Vv-18">
          <mxGeometry x="0.2766" y="1" relative="1" as="geometry">
            <mxPoint x="1" y="30" as="offset" />
          </mxGeometry>
        </mxCell>
        <mxCell id="K4bVLLCjm3qLc4t_S5Vv-13" value="&lt;div&gt;JSON Prometheus&lt;/div&gt;&lt;div&gt;Exporter&lt;br&gt;&lt;/div&gt;" style="shape=parallelogram;perimeter=parallelogramPerimeter;whiteSpace=wrap;html=1;fixedSize=1;size=30;" vertex="1" parent="1">
          <mxGeometry x="540" y="440" width="240" height="100" as="geometry" />
        </mxCell>
        <mxCell id="K4bVLLCjm3qLc4t_S5Vv-19" style="edgeStyle=orthogonalEdgeStyle;rounded=0;orthogonalLoop=1;jettySize=auto;html=1;" edge="1" parent="1" source="K4bVLLCjm3qLc4t_S5Vv-14" target="K4bVLLCjm3qLc4t_S5Vv-3">
          <mxGeometry relative="1" as="geometry" />
        </mxCell>
        <mxCell id="K4bVLLCjm3qLc4t_S5Vv-25" value="&lt;div&gt;Publish Metrics&lt;/div&gt;&lt;div&gt;to&lt;/div&gt;&lt;div&gt;Prometheus&lt;/div&gt;" style="edgeLabel;html=1;align=center;verticalAlign=middle;resizable=0;points=[];" vertex="1" connectable="0" parent="K4bVLLCjm3qLc4t_S5Vv-19">
          <mxGeometry x="-0.2" y="1" relative="1" as="geometry">
            <mxPoint as="offset" />
          </mxGeometry>
        </mxCell>
        <mxCell id="K4bVLLCjm3qLc4t_S5Vv-14" value="&lt;div&gt;Prometheus Service&lt;/div&gt;&lt;div&gt;Monitor&lt;br&gt;&lt;/div&gt;" style="rhombus;whiteSpace=wrap;html=1;" vertex="1" parent="1">
          <mxGeometry x="535" y="110" width="250" height="95" as="geometry" />
        </mxCell>
      </root>
    </mxGraphModel>
  </diagram>
</mxfile>
